<?xml version="1.0" encoding="iso-8859-1"?>
<!-- Generator: Adobe Illustrator 18.0.0, SVG Export Plug-In . SVG Version: 6.00 Build 0)  -->
<!DOCTYPE svg PUBLIC "-//W3C//DTD SVG 1.1//EN" "http://www.w3.org/Graphics/SVG/1.1/DTD/svg11.dtd">
<svg version="1.1" id="Capa_1" xmlns="http://www.w3.org/2000/svg" xmlns:xlink="http://www.w3.org/1999/xlink" x="0px" y="0px"
	 viewBox="0 0 493.849 493.849" style="enable-background:new 0 0 493.849 493.849;" xml:space="preserve">
<g id="XMLID_143_">
	<path id="XMLID_152_" d="M90.376,50.056h313.097c13.825,0,25.023-11.207,25.023-25.032C428.495,11.198,417.298,0,403.473,0H90.376
		C76.55,0,65.353,11.198,65.353,25.023C65.353,38.849,76.55,50.056,90.376,50.056z"/>
	<path id="XMLID_151_" d="M90.376,126.171c-7.625,0-13.826,6.201-13.826,13.814c0,7.625,6.201,13.826,13.826,13.826
		c7.625,0,13.826-6.201,13.826-13.826C104.202,132.372,98.001,126.171,90.376,126.171z"/>
	<path id="XMLID_145_" d="M403.473,75.077c-40.254,0-272.788,0-313.097,0c-41.07,0-64.918,34.503-64.918,64.909
		c0,35.863,29.056,64.918,64.918,64.918c15.91,0,30.297-5.953,41.586-15.451v277.309c0,14.954,12.134,27.088,27.089,27.088h175.755
		c14.955,0,27.089-12.134,27.089-27.088V189.461c11.29,9.499,25.667,15.441,41.577,15.441c35.844,0,64.918-29.055,64.918-64.918
		C468.391,109.407,444.342,75.077,403.473,75.077z M196.871,441.453c0,6.906-5.605,12.511-12.513,12.511
		c-6.908,0-12.51-5.605-12.51-12.511V200.852c0-6.908,5.603-12.511,12.51-12.511c6.908,0,12.513,5.602,12.513,12.511V441.453z
		 M259.444,441.453c0,6.906-5.603,12.511-12.51,12.511c-6.908,0-12.513-5.605-12.513-12.511V200.852
		c0-6.908,5.605-12.511,12.513-12.511c6.908,0,12.51,5.602,12.51,12.511V441.453z M322.011,441.453
		c0,6.906-5.603,12.511-12.511,12.511s-12.513-5.605-12.513-12.511V200.852c0-6.908,5.604-12.511,12.513-12.511
		s12.511,5.602,12.511,12.511V441.453z M403.473,178.834c-21.423,0-38.849-17.427-38.849-38.849c0-4.876,1.003-9.506,2.657-13.814
		c-302.285,0,21.716,0-240.712,0c1.654,4.308,2.657,8.938,2.657,13.814c0,21.422-17.427,38.849-38.849,38.849
		c-21.422,0-38.847-17.427-38.847-38.849c0-21.411,17.425-38.837,38.847-38.837c114.238,0,196.443,0,313.097,0
		c21.422,0,38.847,17.426,38.847,38.837C442.319,161.407,424.895,178.834,403.473,178.834z"/>
	<path id="XMLID_144_" d="M403.473,126.171c-7.624,0-13.826,6.201-13.826,13.814c0,7.625,6.201,13.826,13.826,13.826
		c7.625,0,13.825-6.201,13.825-13.826C417.298,132.372,411.097,126.171,403.473,126.171z"/>
</g>
<g>
</g>
<g>
</g>
<g>
</g>
<g>
</g>
<g>
</g>
<g>
</g>
<g>
</g>
<g>
</g>
<g>
</g>
<g>
</g>
<g>
</g>
<g>
</g>
<g>
</g>
<g>
</g>
<g>
</g>
</svg>
