<svg xmlns="http://www.w3.org/2000/svg" viewBox="0 0 506.27 248.09"><defs><style>.cls-1{fill:none;stroke:#ffe574;stroke-miterlimit:10;stroke-width:7px;}.cls-2{font-size:132.12px;font-family:OrpheusPro-Bold, Orpheus Pro;font-weight:700;letter-spacing:0.05em;}.cls-3{letter-spacing:0.03em;}.cls-4{letter-spacing:0.05em;}</style></defs><title>Asset 1</title><g id="Layer_2" data-name="Layer 2"><g id="Layer_1-2" data-name="Layer 1"><line class="cls-1" x1="135.72" y1="219.67" x2="360" y2="219.67"/><line class="cls-1" x1="161.29" y1="195.67" x2="336.09" y2="195.67"/><line class="cls-1" x1="186.86" y1="170.75" x2="310.32" y2="170.75"/><line class="cls-1" x1="235.81" y1="120.9" x2="260.65" y2="120.9"/><line class="cls-1" x1="186.13" y1="72.84" x2="235.81" y2="72.84"/><line class="cls-1" x1="161.29" y1="48.81" x2="360" y2="48.81"/><line class="cls-1" x1="360" y1="48.81" x2="360" y2="219.67"/><line class="cls-1" x1="335.16" y1="72.84" x2="336.09" y2="195.67"/><line class="cls-1" x1="310.32" y1="96.87" x2="310.32" y2="170.75"/><line class="cls-1" x1="285.48" x2="285.48" y2="24.78"/><line class="cls-1" x1="260.65" x2="260.65" y2="120.9"/><line class="cls-1" x1="235.81" x2="235.81" y2="24.78"/><line class="cls-1" x1="210.97" y1="96.87" x2="210.97" y2="144.93"/><line class="cls-1" x1="186.13" y1="72.84" x2="186.86" y2="170.75"/><line class="cls-1" x1="161.29" y1="48.81" x2="161.29" y2="195.67"/><line class="cls-1" x1="135.72" y1="24.78" x2="135.72" y2="219.67"/><line class="cls-1" x1="383.38" y1="24.78" x2="383.38" y2="244.59"/><line class="cls-1" x1="235.81" y1="72.84" x2="235.81" y2="120.9"/><line class="cls-1" x1="285.48" y1="72.84" x2="285.48" y2="144.93"/><line class="cls-1" x1="285.48" y1="72.84" x2="335.16" y2="72.84"/><line class="cls-1" x1="135.72" y1="24.78" x2="235.81" y2="24.78"/><line class="cls-1" x1="134.98" y1="244.59" x2="383.38" y2="244.59"/><line class="cls-1" x1="210.97" y1="144.93" x2="285.48" y2="144.93"/><line class="cls-1" x1="285.59" y1="24.78" x2="383.38" y2="24.78"/><text class="cls-2" transform="translate(0.11 179.91)">MAN<tspan class="cls-3" x="316.17" y="0">T</tspan><tspan class="cls-4" x="393.59" y="0">O</tspan></text><text/></g></g></svg>