<?xml version="1.0" encoding="utf-8"?>
<!-- Generator: Adobe Illustrator 24.0.1, SVG Export Plug-In . SVG Version: 6.00 Build 0)  -->
<svg version="1.1" id="Layer_1" xmlns="http://www.w3.org/2000/svg" xmlns:xlink="http://www.w3.org/1999/xlink" x="0px" y="0px"
	 viewBox="0 0 629 390.8" style="enable-background:new 0 0 629 390.8;" xml:space="preserve">
<style type="text/css">
	.st0{opacity:0.35;}
	.st1{fill:none;stroke:#A8A087;stroke-width:7;stroke-miterlimit:10;}
	.st2{opacity:0.35;fill:none;stroke:#A8A087;stroke-width:7;stroke-miterlimit:10;enable-background:new    ;}
	.st3{fill:#A8434C;}
	.st4{font-family:'LibreBaskerville-Bold';}
	.st5{font-size:145.2676px;}
	.st6{letter-spacing:4.3;}
	.st7{letter-spacing:-1.1;}
	.st8{font-size:149.7128px;}
	.st9{letter-spacing:4.5;}
</style>
<title>logo</title>
<g id="Layer_2_1_">
	<g id="Layer_1-2">
		<g class="st0">
			<line class="st1" x1="156.2" y1="335.1" x2="470" y2="335.1"/>
			<line class="st1" x1="191.9" y1="300.2" x2="436.5" y2="300.2"/>
			<line class="st1" x1="227.7" y1="264" x2="400.5" y2="264"/>
			<line class="st1" x1="296.2" y1="191.6" x2="331" y2="191.6"/>
			<line class="st1" x1="226.7" y1="121.8" x2="296.2" y2="121.8"/>
			<line class="st1" x1="191.9" y1="86.9" x2="470" y2="86.9"/>
			<line class="st1" x1="470" y1="86.9" x2="470" y2="335.1"/>
			<line class="st1" x1="435.2" y1="121.8" x2="436.5" y2="300.2"/>
			<line class="st1" x1="400.5" y1="156.7" x2="400.5" y2="264"/>
			<line class="st1" x1="365.7" y1="16" x2="365.7" y2="52"/>
			<line class="st1" x1="331" y1="16" x2="331" y2="191.6"/>
			<line class="st1" x1="296.2" y1="16" x2="296.2" y2="52"/>
			<line class="st1" x1="261.5" y1="156.7" x2="261.5" y2="226.5"/>
			<line class="st1" x1="226.7" y1="121.8" x2="227.7" y2="264"/>
			<line class="st1" x1="191.9" y1="86.9" x2="191.9" y2="300.2"/>
			<line class="st1" x1="156.2" y1="52" x2="156.2" y2="335.1"/>
			<line class="st1" x1="502.7" y1="52" x2="502.7" y2="371.3"/>
		</g>
		<line class="st2" x1="296.2" y1="121.8" x2="296.2" y2="191.6"/>
		<line class="st2" x1="365.7" y1="121.8" x2="365.7" y2="226.5"/>
		<line class="st2" x1="365.7" y1="121.8" x2="435.2" y2="121.8"/>
		<line class="st2" x1="156.2" y1="52" x2="296.2" y2="52"/>
		<line class="st2" x1="155.1" y1="371.3" x2="502.7" y2="371.3"/>
		<line class="st2" x1="261.5" y1="226.5" x2="365.7" y2="226.5"/>
		<line class="st2" x1="365.9" y1="52" x2="502.7" y2="52"/>
		<g>
			<text transform="matrix(0.9247 0 0 1 4.882812e-04 260.4912)" class="st3 st4 st5 st6">M</text>
			<text transform="matrix(0.9247 0 0 1 155.1353 260.4912)" class="st3 st4 st5 st7">A</text>
			<text transform="matrix(0.9247 0 0 1 267.439 260.4912)" class="st3 st4 st5 st6">N</text>
			<text transform="matrix(0.9247 0 0 1 391.9717 260.4912)" class="st3 st4 st5">T</text>
			<text transform="matrix(0.8958 0 0 1 498.5107 261.8135)" class="st3 st4 st8 st9">O</text>
		</g>
	</g>
</g>
</svg>
