<svg xmlns="http://www.w3.org/2000/svg" viewBox="0 0 506.77 248.09"><defs><style>.cls-1,.cls-3{opacity:0.35;}.cls-2,.cls-3{fill:none;stroke:#a8a087;stroke-miterlimit:10;stroke-width:7px;}.cls-4{font-size:132.12px;fill:#a8434c;font-family:OrpheusPro-Bold, Orpheus Pro;font-weight:700;letter-spacing:0.05em;}.cls-5{letter-spacing:0.03em;}.cls-6{letter-spacing:0.05em;}</style></defs><title>Asset 4</title><g id="Layer_2" data-name="Layer 2"><g id="Layer_1-2" data-name="Layer 1"><g class="cls-1"><line class="cls-2" x1="136.22" y1="219.67" x2="360.5" y2="219.67"/><line class="cls-2" x1="161.79" y1="195.67" x2="336.59" y2="195.67"/><line class="cls-2" x1="187.36" y1="170.75" x2="310.82" y2="170.75"/><line class="cls-2" x1="236.31" y1="120.9" x2="261.15" y2="120.9"/><line class="cls-2" x1="186.63" y1="72.84" x2="236.31" y2="72.84"/><line class="cls-2" x1="161.79" y1="48.81" x2="360.5" y2="48.81"/><line class="cls-2" x1="360.5" y1="48.81" x2="360.5" y2="219.67"/><line class="cls-2" x1="335.66" y1="72.84" x2="336.59" y2="195.67"/><line class="cls-2" x1="310.82" y1="96.87" x2="310.82" y2="170.75"/><line class="cls-2" x1="285.99" x2="285.99" y2="24.78"/><line class="cls-2" x1="261.15" x2="261.15" y2="120.9"/><line class="cls-2" x1="236.31" x2="236.31" y2="24.78"/><line class="cls-2" x1="211.47" y1="96.87" x2="211.47" y2="144.93"/><line class="cls-2" x1="186.63" y1="72.84" x2="187.36" y2="170.75"/><line class="cls-2" x1="161.79" y1="48.81" x2="161.79" y2="195.67"/><line class="cls-2" x1="136.22" y1="24.78" x2="136.22" y2="219.67"/><line class="cls-2" x1="383.88" y1="24.78" x2="383.88" y2="244.59"/></g><line class="cls-3" x1="236.31" y1="72.84" x2="236.31" y2="120.9"/><line class="cls-3" x1="285.99" y1="72.84" x2="285.99" y2="144.93"/><line class="cls-3" x1="285.99" y1="72.84" x2="335.66" y2="72.84"/><line class="cls-3" x1="136.22" y1="24.78" x2="236.31" y2="24.78"/><line class="cls-3" x1="135.48" y1="244.59" x2="383.88" y2="244.59"/><line class="cls-3" x1="211.47" y1="144.93" x2="285.99" y2="144.93"/><line class="cls-3" x1="286.09" y1="24.78" x2="383.88" y2="24.78"/><text class="cls-4" transform="translate(0.61 179.91)">MAN<tspan class="cls-5" x="316.17" y="0">T</tspan><tspan class="cls-6" x="393.59" y="0">O</tspan></text><text class="cls-1"/></g></g></svg>