<?xml version="1.0" encoding="utf-8"?>
<!-- Generator: Adobe Illustrator 24.0.1, SVG Export Plug-In . SVG Version: 6.00 Build 0)  -->
<svg version="1.1" id="Layer_1" xmlns="http://www.w3.org/2000/svg" xmlns:xlink="http://www.w3.org/1999/xlink" x="0px" y="0px"
	 viewBox="0 0 506.8 248.1" style="enable-background:new 0 0 506.8 248.1;" xml:space="preserve">
<style type="text/css">
	.st0{opacity:0.35;}
	.st1{fill:none;stroke:#A8A087;stroke-width:7;stroke-miterlimit:10;}
	.st2{opacity:0.35;fill:none;stroke:#A8A087;stroke-width:7;stroke-miterlimit:10;enable-background:new    ;}
	.st3{fill:#A8434C;}
	.st4{font-family:'LibreBaskerville-Bold';}
	.st5{font-size:100px;}
	.st6{letter-spacing:2.1;}
	.st7{font-size:103.0577px;}
	.st8{letter-spacing:2.2;}
</style>
<title>Asset 4</title>
<g id="Layer_2_1_">
	<g id="Layer_1-2">
		<g class="st0">
			<line class="st1" x1="136.2" y1="219.7" x2="360.5" y2="219.7"/>
			<line class="st1" x1="161.8" y1="195.7" x2="336.6" y2="195.7"/>
			<line class="st1" x1="187.4" y1="170.8" x2="310.8" y2="170.8"/>
			<line class="st1" x1="236.3" y1="120.9" x2="261.1" y2="120.9"/>
			<line class="st1" x1="186.6" y1="72.8" x2="236.3" y2="72.8"/>
			<line class="st1" x1="161.8" y1="48.8" x2="360.5" y2="48.8"/>
			<line class="st1" x1="360.5" y1="48.8" x2="360.5" y2="219.7"/>
			<line class="st1" x1="335.7" y1="72.8" x2="336.6" y2="195.7"/>
			<line class="st1" x1="310.8" y1="96.9" x2="310.8" y2="170.8"/>
			<line class="st1" x1="286" y1="0" x2="286" y2="24.8"/>
			<line class="st1" x1="261.1" y1="0" x2="261.1" y2="120.9"/>
			<line class="st1" x1="236.3" y1="0" x2="236.3" y2="24.8"/>
			<line class="st1" x1="211.5" y1="96.9" x2="211.5" y2="144.9"/>
			<line class="st1" x1="186.6" y1="72.8" x2="187.4" y2="170.8"/>
			<line class="st1" x1="161.8" y1="48.8" x2="161.8" y2="195.7"/>
			<line class="st1" x1="136.2" y1="24.8" x2="136.2" y2="219.7"/>
			<line class="st1" x1="383.9" y1="24.8" x2="383.9" y2="244.6"/>
		</g>
		<line class="st2" x1="236.3" y1="72.8" x2="236.3" y2="120.9"/>
		<line class="st2" x1="286" y1="72.8" x2="286" y2="144.9"/>
		<line class="st2" x1="286" y1="72.8" x2="335.7" y2="72.8"/>
		<line class="st2" x1="136.2" y1="24.8" x2="236.3" y2="24.8"/>
		<line class="st2" x1="135.5" y1="244.6" x2="383.9" y2="244.6"/>
		<line class="st2" x1="211.5" y1="144.9" x2="286" y2="144.9"/>
		<line class="st2" x1="286.1" y1="24.8" x2="383.9" y2="24.8"/>
		<text transform="matrix(0.9573 0 0 1 24.6108 157.2871)" class="st3 st4 st5 st6">M</text>
		<text transform="matrix(0.9573 0 0 1 135.4799 157.2874)" class="st3 st4 st5 st6">A</text>
		<text transform="matrix(0.9573 0 0 1 215.7378 157.2876)" class="st3 st4 st5 st6">N</text>
		<text transform="matrix(0.9573 0 0 1 304.7378 157.2874)" class="st3 st4 st5 st6">T</text>
		<text transform="matrix(0.9289 0 0 1 380.8799 158.2051)" class="st3 st4 st7 st8">O</text>
	</g>
</g>
</svg>
